<svg width="1920" height="1080" viewBox="0 0 1920 1080" fill="none" xmlns="http://www.w3.org/2000/svg">
<rect width="1920" height="1080" fill="url(#paint0_linear_78_19)"/>
<g clip-path="url(#clip0_78_19)">
<path fill-rule="evenodd" clip-rule="evenodd" d="M799.645 492.344C799.645 492.344 798.705 488.277 798.705 479.209V439.066H854.102V633.432H804.002L802.752 621.23C802.431 615.285 803.371 611.217 803.371 611.217H802.752C795.908 626.231 775.982 637.799 754.199 637.799C714.681 637.799 681.686 608.083 681.686 555.22C681.686 502.357 714.681 472.641 752.961 472.641C774.446 472.641 790.932 481.398 799.026 492.344H799.645ZM733.655 555.22C733.655 577.112 747.355 591.503 765.091 591.503C781.588 591.503 796.527 578.679 796.527 555.22C796.527 531.761 781.588 518.937 765.091 518.937C747.344 518.937 733.655 533.328 733.655 555.22ZM876.447 477.02H932.154V633.409H876.447V477.02ZM1028.15 573.678V523.004H1066.08V477.02H945.269V523.004H973.747L973.369 578.368C973.369 584.313 973.988 589.936 974.619 594.948C979.904 626.23 1003.88 637.799 1030.02 637.799C1049.62 637.799 1064.56 634.354 1071.72 630.92V585.88C1065.5 588.692 1056.48 592.137 1046.82 592.137C1037.17 592.137 1028.15 587.758 1028.15 573.678ZM1182.74 555.531V477.02H1182.76H1238.47V633.432H1188.04L1186.49 617.474C1186.16 612.773 1187.1 609.339 1187.72 607.461H1187.1C1180.26 621.852 1159.72 637.799 1136.68 637.799C1103.38 637.799 1082.21 617.151 1082.21 574.612V477.02H1137.92V566.166C1137.92 578.679 1142.59 587.747 1154.73 587.747C1171.84 587.747 1182.74 574.301 1182.74 555.531Z" fill="#FDFDFD"/>
</g>
<path d="M397.44 948.94L387.52 928.92H394.72L398.26 937.56L400.46 942.74H400.7L402.92 937.58L406.46 928.92H413.66L403.74 948.94H397.44ZM397.38 958V945.1H403.78V958H397.38ZM418.471 958.24C417.231 958.24 416.104 958.007 415.091 957.54C414.091 957.073 413.297 956.387 412.711 955.48C412.124 954.573 411.831 953.46 411.831 952.14C411.831 950.82 412.097 949.733 412.631 948.88C413.177 948.027 413.917 947.36 414.851 946.88C415.784 946.387 416.837 946.02 418.011 945.78C418.797 945.62 419.604 945.487 420.431 945.38C421.271 945.273 422.057 945.187 422.791 945.12C423.537 945.053 424.171 945 424.691 944.96V944.36C424.691 942.973 424.457 942 423.991 941.44C423.537 940.88 422.737 940.6 421.591 940.6C420.857 940.6 420.237 940.7 419.731 940.9C419.237 941.1 418.864 941.46 418.611 941.98C418.371 942.5 418.257 943.24 418.271 944.2H412.391C412.231 942.28 412.531 940.7 413.291 939.46C414.051 938.207 415.164 937.28 416.631 936.68C418.097 936.067 419.817 935.76 421.791 935.76C422.937 935.76 424.051 935.887 425.131 936.14C426.211 936.38 427.177 936.8 428.031 937.4C428.884 937.987 429.557 938.793 430.051 939.82C430.557 940.847 430.811 942.147 430.811 943.72V958H424.651L424.691 952.9C424.451 954.367 423.851 955.627 422.891 956.68C421.944 957.72 420.471 958.24 418.471 958.24ZM420.531 954.12C421.184 954.12 421.804 954 422.391 953.76C422.991 953.507 423.497 953.167 423.911 952.74C424.324 952.3 424.584 951.813 424.691 951.28V947.84C424.157 947.92 423.617 948.007 423.071 948.1C422.524 948.193 422.044 948.293 421.631 948.4C420.297 948.693 419.384 949.1 418.891 949.62C418.397 950.127 418.151 950.793 418.151 951.62C418.151 952.14 418.237 952.587 418.411 952.96C418.597 953.333 418.871 953.62 419.231 953.82C419.591 954.02 420.024 954.12 420.531 954.12ZM454.321 958.26C453.241 958.26 452.294 958.073 451.481 957.7C450.681 957.327 450.034 956.827 449.541 956.2C449.048 955.573 448.721 954.887 448.561 954.14H446.121L448.821 950.78C448.954 951.287 449.174 951.727 449.481 952.1C449.801 952.46 450.208 952.74 450.701 952.94C451.194 953.127 451.774 953.22 452.441 953.22C453.774 953.22 454.801 952.707 455.521 951.68C456.254 950.653 456.621 949.073 456.621 946.94C456.621 944.927 456.268 943.42 455.561 942.42C454.854 941.407 453.828 940.9 452.481 940.9C451.828 940.9 451.234 940.993 450.701 941.18C450.181 941.353 449.754 941.573 449.421 941.84C449.088 942.107 448.888 942.387 448.821 942.68V941.06C449.008 940.26 449.254 939.533 449.561 938.88C449.881 938.227 450.281 937.673 450.761 937.22C451.241 936.753 451.808 936.393 452.461 936.14C453.128 935.887 453.894 935.76 454.761 935.76C456.454 935.76 457.901 936.22 459.101 937.14C460.301 938.06 461.221 939.36 461.861 941.04C462.514 942.707 462.841 944.673 462.841 946.94C462.841 948.74 462.634 950.34 462.221 951.74C461.808 953.14 461.221 954.327 460.461 955.3C459.714 956.26 458.821 956.993 457.781 957.5C456.741 958.007 455.588 958.26 454.321 958.26ZM442.621 966.06V936.18H448.701L448.821 939.64V952.24L448.561 954.14L448.821 958.02V966.06H442.621ZM473.016 958.44C471.043 958.44 469.509 957.787 468.416 956.48C467.323 955.16 466.776 953.173 466.776 950.52V936.16H473.016V948.44C473.016 949.787 473.123 950.813 473.336 951.52C473.563 952.227 473.876 952.713 474.276 952.98C474.676 953.233 475.156 953.36 475.716 953.36C476.543 953.36 477.289 953.093 477.956 952.56C478.636 952.013 479.143 951.373 479.476 950.64V936.16H485.716V958H480.196L479.636 949.76L479.876 951.42C479.716 952.62 479.396 953.753 478.916 954.82C478.449 955.887 477.743 956.76 476.796 957.44C475.863 958.107 474.603 958.44 473.016 958.44ZM500.019 958.3C497.806 958.3 495.919 957.86 494.359 956.98C492.799 956.1 491.606 954.827 490.779 953.16C489.953 951.48 489.539 949.453 489.539 947.08C489.539 944.627 489.979 942.56 490.859 940.88C491.739 939.187 492.979 937.907 494.579 937.04C496.179 936.173 498.053 935.74 500.199 935.74C502.279 935.74 504.026 936.133 505.439 936.92C506.866 937.707 507.946 938.867 508.679 940.4C509.413 941.933 509.779 943.82 509.779 946.06C509.779 946.34 509.766 946.667 509.739 947.04C509.726 947.4 509.706 947.813 509.679 948.28H495.639C495.786 950.093 496.226 951.42 496.959 952.26C497.693 953.087 498.719 953.5 500.039 953.5C501.133 953.5 501.959 953.26 502.519 952.78C503.093 952.3 503.433 951.667 503.539 950.88H509.499C509.379 952.387 508.919 953.7 508.119 954.82C507.333 955.927 506.253 956.787 504.879 957.4C503.506 958 501.886 958.3 500.019 958.3ZM498.179 944.78H503.799C503.746 943.38 503.406 942.333 502.779 941.64C502.166 940.947 501.219 940.6 499.939 940.6C498.433 940.6 497.333 941.14 496.639 942.22C495.946 943.287 495.593 944.807 495.579 946.78C495.686 946.02 495.946 945.5 496.359 945.22C496.773 944.927 497.379 944.78 498.179 944.78ZM520.93 958.26C519.223 958.26 517.757 957.8 516.53 956.88C515.303 955.947 514.363 954.633 513.71 952.94C513.07 951.247 512.75 949.26 512.75 946.98C512.75 944.62 513.11 942.607 513.83 940.94C514.55 939.26 515.557 937.98 516.85 937.1C518.143 936.207 519.637 935.76 521.33 935.76C522.423 935.76 523.363 935.947 524.15 936.32C524.95 936.693 525.597 937.193 526.09 937.82C526.583 938.447 526.91 939.133 527.07 939.88L527.79 941.92L526.81 943.34C526.677 942.833 526.45 942.4 526.13 942.04C525.823 941.667 525.423 941.38 524.93 941.18C524.45 940.98 523.877 940.88 523.21 940.88C521.863 940.88 520.817 941.393 520.07 942.42C519.337 943.433 518.97 944.993 518.97 947.1C518.97 949.113 519.323 950.627 520.03 951.64C520.75 952.653 521.79 953.16 523.15 953.16C523.803 953.16 524.39 953.067 524.91 952.88C525.443 952.68 525.877 952.44 526.21 952.16C526.543 951.867 526.743 951.58 526.81 951.3L527.05 951.56L526.81 952.88C526.623 953.68 526.37 954.413 526.05 955.08C525.73 955.733 525.337 956.3 524.87 956.78C524.403 957.247 523.843 957.613 523.19 957.88C522.55 958.133 521.797 958.26 520.93 958.26ZM526.83 958L526.81 926.88H533.01V958H526.83ZM547.324 958.3C545.111 958.3 543.224 957.86 541.664 956.98C540.104 956.1 538.911 954.827 538.084 953.16C537.257 951.48 536.844 949.453 536.844 947.08C536.844 944.627 537.284 942.56 538.164 940.88C539.044 939.187 540.284 937.907 541.884 937.04C543.484 936.173 545.357 935.74 547.504 935.74C549.584 935.74 551.331 936.133 552.744 936.92C554.171 937.707 555.251 938.867 555.984 940.4C556.717 941.933 557.084 943.82 557.084 946.06C557.084 946.34 557.071 946.667 557.044 947.04C557.031 947.4 557.011 947.813 556.984 948.28H542.944C543.091 950.093 543.531 951.42 544.264 952.26C544.997 953.087 546.024 953.5 547.344 953.5C548.437 953.5 549.264 953.26 549.824 952.78C550.397 952.3 550.737 951.667 550.844 950.88H556.804C556.684 952.387 556.224 953.7 555.424 954.82C554.637 955.927 553.557 956.787 552.184 957.4C550.811 958 549.191 958.3 547.324 958.3ZM545.484 944.78H551.104C551.051 943.38 550.711 942.333 550.084 941.64C549.471 940.947 548.524 940.6 547.244 940.6C545.737 940.6 544.637 941.14 543.944 942.22C543.251 943.287 542.897 944.807 542.884 946.78C542.991 946.02 543.251 945.5 543.664 945.22C544.077 944.927 544.684 944.78 545.484 944.78ZM569.109 958.34C567.229 958.34 565.609 958.067 564.249 957.52C562.902 956.973 561.856 956.147 561.109 955.04C560.362 953.92 559.949 952.5 559.869 950.78H565.929C566.049 951.847 566.389 952.633 566.949 953.14C567.522 953.647 568.289 953.9 569.249 953.9C569.729 953.9 570.189 953.847 570.629 953.74C571.069 953.62 571.429 953.42 571.709 953.14C571.989 952.847 572.129 952.447 572.129 951.94C572.129 951.527 572.022 951.193 571.809 950.94C571.609 950.673 571.309 950.453 570.909 950.28C570.522 950.093 570.049 949.927 569.489 949.78C568.929 949.62 568.296 949.433 567.589 949.22C566.336 948.847 565.162 948.393 564.069 947.86C562.989 947.327 562.116 946.613 561.449 945.72C560.782 944.827 560.449 943.653 560.449 942.2C560.449 940.027 561.242 938.413 562.829 937.36C564.429 936.307 566.522 935.78 569.109 935.78C570.629 935.78 571.996 935.987 573.209 936.4C574.422 936.813 575.422 937.547 576.209 938.6C577.009 939.653 577.522 941.14 577.749 943.06L571.729 943.02C571.609 942.167 571.402 941.533 571.109 941.12C570.816 940.693 570.482 940.413 570.109 940.28C569.736 940.133 569.349 940.06 568.949 940.06C568.496 940.06 568.082 940.133 567.709 940.28C567.349 940.427 567.062 940.64 566.849 940.92C566.636 941.2 566.529 941.553 566.529 941.98C566.529 942.487 566.689 942.92 567.009 943.28C567.329 943.64 567.816 943.96 568.469 944.24C569.122 944.507 569.956 944.78 570.969 945.06C571.636 945.233 572.382 945.447 573.209 945.7C574.049 945.953 574.849 946.307 575.609 946.76C576.382 947.213 577.016 947.827 577.509 948.6C578.016 949.373 578.269 950.373 578.269 951.6C578.269 953.733 577.449 955.393 575.809 956.58C574.169 957.753 571.936 958.34 569.109 958.34ZM595.728 958.26C593.928 958.26 592.528 957.807 591.528 956.9C590.528 955.98 590.021 954.56 590.008 952.64L589.948 942.88C589.948 942.373 590.088 941.96 590.368 941.64C590.661 941.32 591.068 941.113 591.588 941.02L589.948 937.04V936.38L591.088 929.92H596.148V950.72C596.148 951.653 596.261 952.3 596.488 952.66C596.728 953.02 597.181 953.2 597.848 953.2C598.515 953.2 599.068 953.187 599.508 953.16C599.961 953.133 600.388 953.087 600.788 953.02V957.92C600.308 958.093 599.588 958.193 598.628 958.22C597.681 958.247 596.715 958.26 595.728 958.26ZM587.628 941.02V936.18H600.648V941.02H587.628ZM604.124 958V936.18H609.684L610.204 944.72L609.844 943.42C609.964 942.273 610.184 941.233 610.504 940.3C610.824 939.353 611.238 938.54 611.744 937.86C612.251 937.18 612.858 936.653 613.564 936.28C614.284 935.907 615.104 935.72 616.024 935.72C616.291 935.72 616.558 935.733 616.824 935.76C617.104 935.787 617.351 935.833 617.564 935.9V942.36C617.111 942.24 616.671 942.16 616.244 942.12C615.831 942.067 615.418 942.04 615.004 942.04C614.271 942.04 613.604 942.107 613.004 942.24C612.418 942.373 611.904 942.58 611.464 942.86C611.024 943.127 610.658 943.473 610.364 943.9V958H604.124ZM626.361 958.24C625.121 958.24 623.995 958.007 622.981 957.54C621.981 957.073 621.188 956.387 620.601 955.48C620.015 954.573 619.721 953.46 619.721 952.14C619.721 950.82 619.988 949.733 620.521 948.88C621.068 948.027 621.808 947.36 622.741 946.88C623.675 946.387 624.728 946.02 625.901 945.78C626.688 945.62 627.495 945.487 628.321 945.38C629.161 945.273 629.948 945.187 630.681 945.12C631.428 945.053 632.061 945 632.581 944.96V944.36C632.581 942.973 632.348 942 631.881 941.44C631.428 940.88 630.628 940.6 629.481 940.6C628.748 940.6 628.128 940.7 627.621 940.9C627.128 941.1 626.755 941.46 626.501 941.98C626.261 942.5 626.148 943.24 626.161 944.2H620.281C620.121 942.28 620.421 940.7 621.181 939.46C621.941 938.207 623.055 937.28 624.521 936.68C625.988 936.067 627.708 935.76 629.681 935.76C630.828 935.76 631.941 935.887 633.021 936.14C634.101 936.38 635.068 936.8 635.921 937.4C636.775 937.987 637.448 938.793 637.941 939.82C638.448 940.847 638.701 942.147 638.701 943.72V958H632.541L632.581 952.9C632.341 954.367 631.741 955.627 630.781 956.68C629.835 957.72 628.361 958.24 626.361 958.24ZM628.421 954.12C629.075 954.12 629.695 954 630.281 953.76C630.881 953.507 631.388 953.167 631.801 952.74C632.215 952.3 632.475 951.813 632.581 951.28V947.84C632.048 947.92 631.508 948.007 630.961 948.1C630.415 948.193 629.935 948.293 629.521 948.4C628.188 948.693 627.275 949.1 626.781 949.62C626.288 950.127 626.041 950.793 626.041 951.62C626.041 952.14 626.128 952.587 626.301 952.96C626.488 953.333 626.761 953.62 627.121 953.82C627.481 954.02 627.915 954.12 628.421 954.12ZM643.695 958V936.18H649.255L649.775 944.4L649.535 942.74C649.695 941.54 650.008 940.407 650.475 939.34C650.941 938.26 651.635 937.387 652.555 936.72C653.488 936.053 654.721 935.72 656.255 935.72C658.241 935.72 659.835 936.367 661.035 937.66C662.248 938.94 662.855 940.9 662.855 943.54V958H656.635V945.86C656.635 944.473 656.515 943.42 656.275 942.7C656.035 941.967 655.695 941.467 655.255 941.2C654.815 940.933 654.295 940.8 653.695 940.8C652.841 940.8 652.088 941.073 651.435 941.62C650.781 942.153 650.281 942.787 649.935 943.52V958H643.695ZM675.633 958.34C673.753 958.34 672.133 958.067 670.773 957.52C669.426 956.973 668.379 956.147 667.633 955.04C666.886 953.92 666.473 952.5 666.393 950.78H672.453C672.573 951.847 672.913 952.633 673.473 953.14C674.046 953.647 674.813 953.9 675.773 953.9C676.253 953.9 676.713 953.847 677.153 953.74C677.593 953.62 677.953 953.42 678.233 953.14C678.513 952.847 678.653 952.447 678.653 951.94C678.653 951.527 678.546 951.193 678.333 950.94C678.133 950.673 677.833 950.453 677.433 950.28C677.046 950.093 676.573 949.927 676.013 949.78C675.453 949.62 674.819 949.433 674.113 949.22C672.859 948.847 671.686 948.393 670.592 947.86C669.513 947.327 668.639 946.613 667.973 945.72C667.306 944.827 666.973 943.653 666.973 942.2C666.973 940.027 667.766 938.413 669.353 937.36C670.953 936.307 673.046 935.78 675.633 935.78C677.153 935.78 678.519 935.987 679.733 936.4C680.946 936.813 681.946 937.547 682.733 938.6C683.533 939.653 684.046 941.14 684.273 943.06L678.253 943.02C678.133 942.167 677.926 941.533 677.633 941.12C677.339 940.693 677.006 940.413 676.633 940.28C676.259 940.133 675.873 940.06 675.473 940.06C675.019 940.06 674.606 940.133 674.233 940.28C673.873 940.427 673.586 940.64 673.373 940.92C673.159 941.2 673.053 941.553 673.053 941.98C673.053 942.487 673.213 942.92 673.533 943.28C673.853 943.64 674.339 943.96 674.993 944.24C675.646 944.507 676.479 944.78 677.493 945.06C678.159 945.233 678.906 945.447 679.733 945.7C680.573 945.953 681.373 946.307 682.133 946.76C682.906 947.213 683.539 947.827 684.033 948.6C684.539 949.373 684.793 950.373 684.793 951.6C684.793 953.733 683.973 955.393 682.333 956.58C680.693 957.753 678.459 958.34 675.633 958.34ZM688.617 958V936.18H694.177L694.697 944.4L694.457 942.74C694.617 941.54 694.91 940.407 695.337 939.34C695.777 938.26 696.437 937.387 697.317 936.72C698.21 936.053 699.417 935.72 700.937 935.72C702.657 935.72 704.083 936.24 705.217 937.28C706.363 938.32 707.063 939.933 707.317 942.12L707.397 943.18V958H701.157V945.86C701.157 944.473 701.037 943.42 700.797 942.7C700.57 941.967 700.257 941.467 699.857 941.2C699.457 940.933 698.99 940.8 698.457 940.8C697.603 940.8 696.87 941.073 696.257 941.62C695.657 942.153 695.19 942.787 694.857 943.52V958H688.617ZM713.677 958V945.86C713.677 944.473 713.557 943.42 713.317 942.7C713.09 941.967 712.777 941.467 712.377 941.2C711.977 940.933 711.51 940.8 710.977 940.8C710.123 940.8 709.397 941.073 708.797 941.62C708.197 942.153 707.73 942.787 707.397 943.52L707.257 944.4L707.157 942.86C707.277 941.727 707.537 940.613 707.937 939.52C708.35 938.427 708.99 937.52 709.857 936.8C710.737 936.08 711.93 935.72 713.437 935.72C715.37 935.72 716.93 936.367 718.117 937.66C719.317 938.94 719.917 940.9 719.917 943.54V958H713.677ZM725.002 958V936.18H731.202V958H725.002ZM728.122 933.68C727.082 933.68 726.195 933.32 725.462 932.6C724.729 931.867 724.362 930.933 724.362 929.8C724.362 928.667 724.729 927.747 725.462 927.04C726.195 926.32 727.082 925.96 728.122 925.96C729.149 925.96 730.029 926.32 730.762 927.04C731.495 927.747 731.862 928.667 731.862 929.8C731.862 930.933 731.495 931.867 730.762 932.6C730.029 933.32 729.149 933.68 728.122 933.68ZM742.72 958.26C740.92 958.26 739.52 957.807 738.52 956.9C737.52 955.98 737.014 954.56 737 952.64L736.94 942.88C736.94 942.373 737.08 941.96 737.36 941.64C737.654 941.32 738.06 941.113 738.58 941.02L736.94 937.04V936.38L738.08 929.92H743.14V950.72C743.14 951.653 743.254 952.3 743.48 952.66C743.72 953.02 744.174 953.2 744.84 953.2C745.507 953.2 746.06 953.187 746.5 953.16C746.954 953.133 747.38 953.087 747.78 953.02V957.92C747.3 958.093 746.58 958.193 745.62 958.22C744.674 958.247 743.707 958.26 742.72 958.26ZM734.62 941.02V936.18H747.64V941.02H734.62ZM751.174 958V936.18H757.374V958H751.174ZM754.294 933.68C753.254 933.68 752.367 933.32 751.634 932.6C750.9 931.867 750.534 930.933 750.534 929.8C750.534 928.667 750.9 927.747 751.634 927.04C752.367 926.32 753.254 925.96 754.294 925.96C755.32 925.96 756.2 926.32 756.934 927.04C757.667 927.747 758.034 928.667 758.034 929.8C758.034 930.933 757.667 931.867 756.934 932.6C756.2 933.32 755.32 933.68 754.294 933.68ZM762.484 958V936.18H768.044L768.564 944.72L768.204 943.42C768.324 942.273 768.544 941.233 768.864 940.3C769.184 939.353 769.597 938.54 770.104 937.86C770.61 937.18 771.217 936.653 771.924 936.28C772.644 935.907 773.464 935.72 774.384 935.72C774.65 935.72 774.917 935.733 775.184 935.76C775.464 935.787 775.71 935.833 775.924 935.9V942.36C775.47 942.24 775.03 942.16 774.604 942.12C774.19 942.067 773.777 942.04 773.364 942.04C772.63 942.04 771.964 942.107 771.364 942.24C770.777 942.373 770.264 942.58 769.824 942.86C769.384 943.127 769.017 943.473 768.724 943.9V958H762.484ZM792.766 958.26C791.059 958.26 789.593 957.8 788.366 956.88C787.139 955.947 786.199 954.633 785.546 952.94C784.906 951.247 784.586 949.26 784.586 946.98C784.586 944.62 784.946 942.607 785.666 940.94C786.386 939.26 787.393 937.98 788.686 937.1C789.979 936.207 791.473 935.76 793.166 935.76C794.259 935.76 795.199 935.947 795.986 936.32C796.786 936.693 797.433 937.193 797.926 937.82C798.419 938.447 798.746 939.133 798.906 939.88L799.626 941.92L798.646 943.34C798.513 942.833 798.286 942.4 797.966 942.04C797.659 941.667 797.259 941.38 796.766 941.18C796.286 940.98 795.713 940.88 795.046 940.88C793.699 940.88 792.653 941.393 791.906 942.42C791.173 943.433 790.806 944.993 790.806 947.1C790.806 949.113 791.159 950.627 791.866 951.64C792.586 952.653 793.626 953.16 794.986 953.16C795.639 953.16 796.226 953.067 796.746 952.88C797.279 952.68 797.713 952.44 798.046 952.16C798.379 951.867 798.579 951.58 798.646 951.3L798.886 951.56L798.646 952.88C798.459 953.68 798.206 954.413 797.886 955.08C797.566 955.733 797.173 956.3 796.706 956.78C796.239 957.247 795.679 957.613 795.026 957.88C794.386 958.133 793.633 958.26 792.766 958.26ZM798.666 958L798.646 926.88H804.846V958H798.666ZM819.16 958.3C816.947 958.3 815.06 957.86 813.5 956.98C811.94 956.1 810.747 954.827 809.92 953.16C809.093 951.48 808.68 949.453 808.68 947.08C808.68 944.627 809.12 942.56 810 940.88C810.88 939.187 812.12 937.907 813.72 937.04C815.32 936.173 817.193 935.74 819.34 935.74C821.42 935.74 823.167 936.133 824.58 936.92C826.007 937.707 827.087 938.867 827.82 940.4C828.553 941.933 828.92 943.82 828.92 946.06C828.92 946.34 828.907 946.667 828.88 947.04C828.867 947.4 828.847 947.813 828.82 948.28H814.78C814.927 950.093 815.367 951.42 816.1 952.26C816.833 953.087 817.86 953.5 819.18 953.5C820.273 953.5 821.1 953.26 821.66 952.78C822.233 952.3 822.573 951.667 822.68 950.88H828.64C828.52 952.387 828.06 953.7 827.26 954.82C826.473 955.927 825.393 956.787 824.02 957.4C822.647 958 821.027 958.3 819.16 958.3ZM817.32 944.78H822.94C822.887 943.38 822.547 942.333 821.92 941.64C821.307 940.947 820.36 940.6 819.08 940.6C817.573 940.6 816.473 941.14 815.78 942.22C815.087 943.287 814.733 944.807 814.72 946.78C814.827 946.02 815.087 945.5 815.5 945.22C815.913 944.927 816.52 944.78 817.32 944.78ZM840.945 958.34C839.065 958.34 837.445 958.067 836.085 957.52C834.738 956.973 833.692 956.147 832.945 955.04C832.198 953.92 831.785 952.5 831.705 950.78H837.765C837.885 951.847 838.225 952.633 838.785 953.14C839.358 953.647 840.125 953.9 841.085 953.9C841.565 953.9 842.025 953.847 842.465 953.74C842.905 953.62 843.265 953.42 843.545 953.14C843.825 952.847 843.965 952.447 843.965 951.94C843.965 951.527 843.858 951.193 843.645 950.94C843.445 950.673 843.145 950.453 842.745 950.28C842.358 950.093 841.885 949.927 841.325 949.78C840.765 949.62 840.132 949.433 839.425 949.22C838.172 948.847 836.998 948.393 835.905 947.86C834.825 947.327 833.952 946.613 833.285 945.72C832.618 944.827 832.285 943.653 832.285 942.2C832.285 940.027 833.078 938.413 834.665 937.36C836.265 936.307 838.358 935.78 840.945 935.78C842.465 935.78 843.832 935.987 845.045 936.4C846.258 936.813 847.258 937.547 848.045 938.6C848.845 939.653 849.358 941.14 849.585 943.06L843.565 943.02C843.445 942.167 843.238 941.533 842.945 941.12C842.652 940.693 842.318 940.413 841.945 940.28C841.572 940.133 841.185 940.06 840.785 940.06C840.332 940.06 839.918 940.133 839.545 940.28C839.185 940.427 838.898 940.64 838.685 940.92C838.472 941.2 838.365 941.553 838.365 941.98C838.365 942.487 838.525 942.92 838.845 943.28C839.165 943.64 839.652 943.96 840.305 944.24C840.958 944.507 841.792 944.78 842.805 945.06C843.472 945.233 844.218 945.447 845.045 945.7C845.885 945.953 846.685 946.307 847.445 946.76C848.218 947.213 848.852 947.827 849.345 948.6C849.852 949.373 850.105 950.373 850.105 951.6C850.105 953.733 849.285 955.393 847.645 956.58C846.005 957.753 843.772 958.34 840.945 958.34ZM861.164 958.26C859.458 958.26 857.991 957.8 856.764 956.88C855.538 955.947 854.598 954.633 853.944 952.94C853.304 951.247 852.984 949.26 852.984 946.98C852.984 944.62 853.344 942.607 854.064 940.94C854.784 939.26 855.791 937.98 857.084 937.1C858.378 936.207 859.871 935.76 861.564 935.76C862.658 935.76 863.598 935.947 864.384 936.32C865.184 936.693 865.831 937.193 866.324 937.82C866.818 938.447 867.144 939.133 867.304 939.88L868.024 941.92L867.044 943.34C866.911 942.833 866.684 942.4 866.364 942.04C866.058 941.667 865.658 941.38 865.164 941.18C864.684 940.98 864.111 940.88 863.444 940.88C862.098 940.88 861.051 941.393 860.304 942.42C859.571 943.433 859.204 944.993 859.204 947.1C859.204 949.113 859.558 950.627 860.264 951.64C860.984 952.653 862.024 953.16 863.384 953.16C864.038 953.16 864.624 953.067 865.144 952.88C865.678 952.68 866.111 952.44 866.444 952.16C866.778 951.867 866.978 951.58 867.044 951.3L867.284 951.56L867.044 952.88C866.858 953.68 866.604 954.413 866.284 955.08C865.964 955.733 865.571 956.3 865.104 956.78C864.638 957.247 864.078 957.613 863.424 957.88C862.784 958.133 862.031 958.26 861.164 958.26ZM867.064 958L867.044 926.88H873.244V958H867.064ZM887.558 958.3C885.345 958.3 883.458 957.86 881.898 956.98C880.338 956.1 879.145 954.827 878.318 953.16C877.492 951.48 877.078 949.453 877.078 947.08C877.078 944.627 877.518 942.56 878.398 940.88C879.278 939.187 880.518 937.907 882.118 937.04C883.718 936.173 885.592 935.74 887.738 935.74C889.818 935.74 891.565 936.133 892.978 936.92C894.405 937.707 895.485 938.867 896.218 940.4C896.952 941.933 897.318 943.82 897.318 946.06C897.318 946.34 897.305 946.667 897.278 947.04C897.265 947.4 897.245 947.813 897.218 948.28H883.178C883.325 950.093 883.765 951.42 884.498 952.26C885.232 953.087 886.258 953.5 887.578 953.5C888.672 953.5 889.498 953.26 890.058 952.78C890.632 952.3 890.972 951.667 891.078 950.88H897.038C896.918 952.387 896.458 953.7 895.658 954.82C894.872 955.927 893.792 956.787 892.418 957.4C891.045 958 889.425 958.3 887.558 958.3ZM885.718 944.78H891.338C891.285 943.38 890.945 942.333 890.318 941.64C889.705 940.947 888.758 940.6 887.478 940.6C885.972 940.6 884.872 941.14 884.178 942.22C883.485 943.287 883.132 944.807 883.118 946.78C883.225 946.02 883.485 945.5 883.898 945.22C884.312 944.927 884.918 944.78 885.718 944.78ZM914.517 958.26C912.717 958.26 911.317 957.807 910.317 956.9C909.317 955.98 908.811 954.56 908.797 952.64L908.737 942.88C908.737 942.373 908.877 941.96 909.157 941.64C909.451 941.32 909.857 941.113 910.377 941.02L908.737 937.04V936.38L909.877 929.92H914.937V950.72C914.937 951.653 915.051 952.3 915.277 952.66C915.517 953.02 915.971 953.2 916.637 953.2C917.304 953.2 917.857 953.187 918.297 953.16C918.751 953.133 919.177 953.087 919.577 953.02V957.92C919.097 958.093 918.377 958.193 917.417 958.22C916.471 958.247 915.504 958.26 914.517 958.26ZM906.417 941.02V936.18H919.437V941.02H906.417ZM929.188 958.44C927.214 958.44 925.681 957.787 924.588 956.48C923.494 955.16 922.948 953.173 922.948 950.52V936.16H929.188V948.44C929.188 949.787 929.294 950.813 929.508 951.52C929.734 952.227 930.048 952.713 930.448 952.98C930.848 953.233 931.328 953.36 931.888 953.36C932.714 953.36 933.461 953.093 934.128 952.56C934.808 952.013 935.314 951.373 935.648 950.64V936.16H941.888V958H936.368L935.808 949.76L936.048 951.42C935.888 952.62 935.568 953.753 935.088 954.82C934.621 955.887 933.914 956.76 932.968 957.44C932.034 958.107 930.774 958.44 929.188 958.44ZM960.728 958.26C958.928 958.26 957.528 957.807 956.528 956.9C955.528 955.98 955.021 954.56 955.008 952.64L954.948 942.88C954.948 942.373 955.088 941.96 955.368 941.64C955.661 941.32 956.068 941.113 956.588 941.02L954.948 937.04V936.38L956.088 929.92H961.148V950.72C961.148 951.653 961.261 952.3 961.488 952.66C961.728 953.02 962.181 953.2 962.848 953.2C963.515 953.2 964.068 953.187 964.508 953.16C964.961 953.133 965.388 953.087 965.788 953.02V957.92C965.308 958.093 964.588 958.193 963.628 958.22C962.681 958.247 961.715 958.26 960.728 958.26ZM952.628 941.02V936.18H965.648V941.02H952.628ZM978.418 958.3C976.204 958.3 974.318 957.86 972.758 956.98C971.198 956.1 970.004 954.827 969.178 953.16C968.351 951.48 967.938 949.453 967.938 947.08C967.938 944.627 968.378 942.56 969.258 940.88C970.138 939.187 971.378 937.907 972.978 937.04C974.578 936.173 976.451 935.74 978.598 935.74C980.678 935.74 982.424 936.133 983.838 936.92C985.264 937.707 986.344 938.867 987.078 940.4C987.811 941.933 988.178 943.82 988.178 946.06C988.178 946.34 988.164 946.667 988.138 947.04C988.124 947.4 988.104 947.813 988.078 948.28H974.038C974.184 950.093 974.624 951.42 975.358 952.26C976.091 953.087 977.118 953.5 978.438 953.5C979.531 953.5 980.358 953.26 980.918 952.78C981.491 952.3 981.831 951.667 981.938 950.88H987.898C987.778 952.387 987.318 953.7 986.518 954.82C985.731 955.927 984.651 956.787 983.278 957.4C981.904 958 980.284 958.3 978.418 958.3ZM976.578 944.78H982.198C982.144 943.38 981.804 942.333 981.178 941.64C980.564 940.947 979.618 940.6 978.338 940.6C976.831 940.6 975.731 941.14 975.038 942.22C974.344 943.287 973.991 944.807 973.978 946.78C974.084 946.02 974.344 945.5 974.758 945.22C975.171 944.927 975.778 944.78 976.578 944.78ZM991.958 958V926.76H998.198V958H991.958ZM1012.56 958.3C1010.35 958.3 1008.46 957.86 1006.9 956.98C1005.34 956.1 1004.15 954.827 1003.32 953.16C1002.49 951.48 1002.08 949.453 1002.08 947.08C1002.08 944.627 1002.52 942.56 1003.4 940.88C1004.28 939.187 1005.52 937.907 1007.12 937.04C1008.72 936.173 1010.59 935.74 1012.74 935.74C1014.82 935.74 1016.57 936.133 1017.98 936.92C1019.41 937.707 1020.49 938.867 1021.22 940.4C1021.95 941.933 1022.32 943.82 1022.32 946.06C1022.32 946.34 1022.31 946.667 1022.28 947.04C1022.27 947.4 1022.25 947.813 1022.22 948.28H1008.18C1008.33 950.093 1008.77 951.42 1009.5 952.26C1010.23 953.087 1011.26 953.5 1012.58 953.5C1013.67 953.5 1014.5 953.26 1015.06 952.78C1015.63 952.3 1015.97 951.667 1016.08 950.88H1022.04C1021.92 952.387 1021.46 953.7 1020.66 954.82C1019.87 955.927 1018.79 956.787 1017.42 957.4C1016.05 958 1014.43 958.3 1012.56 958.3ZM1010.72 944.78H1016.34C1016.29 943.38 1015.95 942.333 1015.32 941.64C1014.71 940.947 1013.76 940.6 1012.48 940.6C1010.97 940.6 1009.87 941.14 1009.18 942.22C1008.49 943.287 1008.13 944.807 1008.12 946.78C1008.23 946.02 1008.49 945.5 1008.9 945.22C1009.31 944.927 1009.92 944.78 1010.72 944.78ZM1009.96 933.12L1013.64 926.78H1020.2L1015.36 933.12H1009.96ZM1027.26 958V943.06C1027.26 942.393 1027.37 941.913 1027.6 941.62C1027.84 941.327 1028.17 941.127 1028.6 941.02L1027.26 937.06V933.58C1027.26 931.873 1027.6 930.453 1028.28 929.32C1028.96 928.187 1029.87 927.34 1031.02 926.78C1032.17 926.207 1033.43 925.92 1034.8 925.92C1035.75 925.92 1036.46 925.947 1036.94 926C1037.43 926.04 1037.92 926.107 1038.4 926.2V931.54C1038.11 931.433 1037.73 931.353 1037.28 931.3C1036.83 931.233 1036.33 931.2 1035.78 931.2C1035.33 931.2 1034.93 931.287 1034.58 931.46C1034.23 931.62 1033.96 931.92 1033.76 932.36C1033.57 932.787 1033.48 933.393 1033.48 934.18V958H1027.26ZM1024.58 941.02V936.18H1037.54V941.02H1024.58ZM1050.04 958.3C1047.92 958.3 1046.08 957.867 1044.52 957C1042.96 956.133 1041.75 954.86 1040.88 953.18C1040.03 951.487 1039.6 949.413 1039.6 946.96C1039.6 944.64 1040.06 942.64 1040.96 940.96C1041.87 939.28 1043.12 937.993 1044.7 937.1C1046.29 936.193 1048.1 935.74 1050.12 935.74C1052.31 935.74 1054.18 936.193 1055.72 937.1C1057.28 937.993 1058.48 939.28 1059.3 940.96C1060.14 942.64 1060.56 944.64 1060.56 946.96C1060.56 949.413 1060.1 951.487 1059.18 953.18C1058.26 954.86 1057.01 956.133 1055.42 957C1053.84 957.867 1052.04 958.3 1050.04 958.3ZM1050.12 953.16C1051.34 953.16 1052.35 952.713 1053.16 951.82C1053.98 950.913 1054.38 949.293 1054.38 946.96C1054.38 944.787 1053.96 943.233 1053.1 942.3C1052.26 941.353 1051.25 940.88 1050.06 940.88C1048.85 940.88 1047.84 941.353 1047.02 942.3C1046.21 943.233 1045.8 944.787 1045.8 946.96C1045.8 949.2 1046.23 950.793 1047.08 951.74C1047.94 952.687 1048.95 953.16 1050.12 953.16ZM1064.48 958V936.18H1070.04L1070.56 944.4L1070.32 942.74C1070.48 941.54 1070.79 940.407 1071.26 939.34C1071.72 938.26 1072.42 937.387 1073.34 936.72C1074.27 936.053 1075.5 935.72 1077.04 935.72C1079.02 935.72 1080.62 936.367 1081.82 937.66C1083.03 938.94 1083.64 940.9 1083.64 943.54V958H1077.42V945.86C1077.42 944.473 1077.3 943.42 1077.06 942.7C1076.82 941.967 1076.48 941.467 1076.04 941.2C1075.6 940.933 1075.08 940.8 1074.48 940.8C1073.62 940.8 1072.87 941.073 1072.22 941.62C1071.56 942.153 1071.06 942.787 1070.72 943.52V958H1064.48ZM1097.82 958.3C1095.7 958.3 1093.86 957.867 1092.3 957C1090.74 956.133 1089.52 954.86 1088.66 953.18C1087.8 951.487 1087.38 949.413 1087.38 946.96C1087.38 944.64 1087.83 942.64 1088.74 940.96C1089.64 939.28 1090.89 937.993 1092.48 937.1C1094.06 936.193 1095.87 935.74 1097.9 935.74C1100.08 935.74 1101.95 936.193 1103.5 937.1C1105.06 937.993 1106.25 939.28 1107.08 940.96C1107.92 942.64 1108.34 944.64 1108.34 946.96C1108.34 949.413 1107.88 951.487 1106.96 953.18C1106.04 954.86 1104.78 956.133 1103.2 957C1101.61 957.867 1099.82 958.3 1097.82 958.3ZM1097.9 953.16C1099.11 953.16 1100.12 952.713 1100.94 951.82C1101.75 950.913 1102.16 949.293 1102.16 946.96C1102.16 944.787 1101.73 943.233 1100.88 942.3C1100.04 941.353 1099.02 940.88 1097.84 940.88C1096.62 940.88 1095.61 941.353 1094.8 942.3C1093.98 943.233 1093.58 944.787 1093.58 946.96C1093.58 949.2 1094 950.793 1094.86 951.74C1095.71 952.687 1096.72 953.16 1097.9 953.16ZM1110.91 966.32C1111.07 965.56 1111.22 964.607 1111.37 963.46C1111.51 962.327 1111.63 961.087 1111.73 959.74C1111.82 958.393 1111.87 957.04 1111.87 955.68V951.56H1117.55L1117.49 955.4C1117.47 956.933 1117.35 958.407 1117.11 959.82C1116.88 961.233 1116.61 962.5 1116.31 963.62C1116 964.74 1115.71 965.64 1115.43 966.32H1110.91ZM1138.01 958.38C1135.72 958.38 1133.8 957.907 1132.25 956.96C1130.72 956 1129.56 954.667 1128.77 952.96C1128 951.24 1127.61 949.247 1127.61 946.98C1127.61 944.66 1128.01 942.66 1128.81 940.98C1129.62 939.3 1130.8 938.013 1132.33 937.12C1133.88 936.213 1135.74 935.76 1137.91 935.76C1140.04 935.76 1141.81 936.127 1143.21 936.86C1144.61 937.593 1145.64 938.6 1146.31 939.88C1146.98 941.147 1147.27 942.587 1147.19 944.2H1141.17C1141.14 943.587 1141.06 943.06 1140.91 942.62C1140.76 942.167 1140.55 941.8 1140.27 941.52C1140 941.227 1139.67 941.013 1139.27 940.88C1138.88 940.733 1138.43 940.66 1137.91 940.66C1136.51 940.66 1135.47 941.173 1134.79 942.2C1134.11 943.213 1133.77 944.773 1133.77 946.88C1133.77 949.173 1134.15 950.82 1134.91 951.82C1135.67 952.807 1136.74 953.333 1138.13 953.4C1138.68 953.427 1139.2 953.34 1139.69 953.14C1140.18 952.94 1140.58 952.607 1140.89 952.14C1141.2 951.66 1141.34 951.033 1141.33 950.26H1147.27C1147.31 951.873 1146.97 953.293 1146.25 954.52C1145.53 955.733 1144.47 956.68 1143.07 957.36C1141.68 958.04 1140 958.38 1138.01 958.38ZM1160.32 958.3C1158.2 958.3 1156.36 957.867 1154.8 957C1153.24 956.133 1152.02 954.86 1151.16 953.18C1150.3 951.487 1149.88 949.413 1149.88 946.96C1149.88 944.64 1150.33 942.64 1151.24 940.96C1152.14 939.28 1153.39 937.993 1154.98 937.1C1156.56 936.193 1158.37 935.74 1160.4 935.74C1162.58 935.74 1164.45 936.193 1166 937.1C1167.56 937.993 1168.75 939.28 1169.58 940.96C1170.42 942.64 1170.84 944.64 1170.84 946.96C1170.84 949.413 1170.38 951.487 1169.46 953.18C1168.54 954.86 1167.28 956.133 1165.7 957C1164.11 957.867 1162.32 958.3 1160.32 958.3ZM1160.4 953.16C1161.61 953.16 1162.62 952.713 1163.44 951.82C1164.25 950.913 1164.66 949.293 1164.66 946.96C1164.66 944.787 1164.23 943.233 1163.38 942.3C1162.54 941.353 1161.52 940.88 1160.34 940.88C1159.12 940.88 1158.11 941.353 1157.3 942.3C1156.48 943.233 1156.08 944.787 1156.08 946.96C1156.08 949.2 1156.5 950.793 1157.36 951.74C1158.21 952.687 1159.22 953.16 1160.4 953.16ZM1174.75 958V936.18H1180.31L1180.83 944.4L1180.59 942.74C1180.75 941.54 1181.04 940.407 1181.47 939.34C1181.91 938.26 1182.57 937.387 1183.45 936.72C1184.34 936.053 1185.55 935.72 1187.07 935.72C1188.79 935.72 1190.22 936.24 1191.35 937.28C1192.5 938.32 1193.2 939.933 1193.45 942.12L1193.53 943.18V958H1187.29V945.86C1187.29 944.473 1187.17 943.42 1186.93 942.7C1186.7 941.967 1186.39 941.467 1185.99 941.2C1185.59 940.933 1185.12 940.8 1184.59 940.8C1183.74 940.8 1183 941.073 1182.39 941.62C1181.79 942.153 1181.32 942.787 1180.99 943.52V958H1174.75ZM1199.81 958V945.86C1199.81 944.473 1199.69 943.42 1199.45 942.7C1199.22 941.967 1198.91 941.467 1198.51 941.2C1198.11 940.933 1197.64 940.8 1197.11 940.8C1196.26 940.8 1195.53 941.073 1194.93 941.62C1194.33 942.153 1193.86 942.787 1193.53 943.52L1193.39 944.4L1193.29 942.86C1193.41 941.727 1193.67 940.613 1194.07 939.52C1194.48 938.427 1195.12 937.52 1195.99 936.8C1196.87 936.08 1198.06 935.72 1199.57 935.72C1201.5 935.72 1203.06 936.367 1204.25 937.66C1205.45 938.94 1206.05 940.9 1206.05 943.54V958H1199.81ZM1222.84 958.26C1221.76 958.26 1220.81 958.073 1220 957.7C1219.2 957.327 1218.55 956.827 1218.06 956.2C1217.56 955.573 1217.24 954.887 1217.08 954.14H1214.64L1217.34 950.78C1217.47 951.287 1217.69 951.727 1218 952.1C1218.32 952.46 1218.72 952.74 1219.22 952.94C1219.71 953.127 1220.29 953.22 1220.96 953.22C1222.29 953.22 1223.32 952.707 1224.04 951.68C1224.77 950.653 1225.14 949.073 1225.14 946.94C1225.14 944.927 1224.78 943.42 1224.08 942.42C1223.37 941.407 1222.34 940.9 1221 940.9C1220.34 940.9 1219.75 940.993 1219.22 941.18C1218.7 941.353 1218.27 941.573 1217.94 941.84C1217.6 942.107 1217.4 942.387 1217.34 942.68V941.06C1217.52 940.26 1217.77 939.533 1218.08 938.88C1218.4 938.227 1218.8 937.673 1219.28 937.22C1219.76 936.753 1220.32 936.393 1220.98 936.14C1221.64 935.887 1222.41 935.76 1223.28 935.76C1224.97 935.76 1226.42 936.22 1227.62 937.14C1228.82 938.06 1229.74 939.36 1230.38 941.04C1231.03 942.707 1231.36 944.673 1231.36 946.94C1231.36 948.74 1231.15 950.34 1230.74 951.74C1230.32 953.14 1229.74 954.327 1228.98 955.3C1228.23 956.26 1227.34 956.993 1226.3 957.5C1225.26 958.007 1224.1 958.26 1222.84 958.26ZM1211.14 966.06V936.18H1217.22L1217.34 939.64V952.24L1217.08 954.14L1217.34 958.02V966.06H1211.14ZM1241.53 958.44C1239.56 958.44 1238.02 957.787 1236.93 956.48C1235.84 955.16 1235.29 953.173 1235.29 950.52V936.16H1241.53V948.44C1241.53 949.787 1241.64 950.813 1241.85 951.52C1242.08 952.227 1242.39 952.713 1242.79 952.98C1243.19 953.233 1243.67 953.36 1244.23 953.36C1245.06 953.36 1245.8 953.093 1246.47 952.56C1247.15 952.013 1247.66 951.373 1247.99 950.64V936.16H1254.23V958H1248.71L1248.15 949.76L1248.39 951.42C1248.23 952.62 1247.91 953.753 1247.43 954.82C1246.96 955.887 1246.26 956.76 1245.31 957.44C1244.38 958.107 1243.12 958.44 1241.53 958.44ZM1265.73 958.26C1263.93 958.26 1262.53 957.807 1261.53 956.9C1260.53 955.98 1260.02 954.56 1260.01 952.64L1259.95 942.88C1259.95 942.373 1260.09 941.96 1260.37 941.64C1260.66 941.32 1261.07 941.113 1261.59 941.02L1259.95 937.04V936.38L1261.09 929.92H1266.15V950.72C1266.15 951.653 1266.26 952.3 1266.49 952.66C1266.73 953.02 1267.18 953.2 1267.85 953.2C1268.51 953.2 1269.07 953.187 1269.51 953.16C1269.96 953.133 1270.39 953.087 1270.79 953.02V957.92C1270.31 958.093 1269.59 958.193 1268.63 958.22C1267.68 958.247 1266.71 958.26 1265.73 958.26ZM1257.63 941.02V936.18H1270.65V941.02H1257.63ZM1280.15 958.24C1278.91 958.24 1277.78 958.007 1276.77 957.54C1275.77 957.073 1274.98 956.387 1274.39 955.48C1273.8 954.573 1273.51 953.46 1273.51 952.14C1273.51 950.82 1273.78 949.733 1274.31 948.88C1274.86 948.027 1275.6 947.36 1276.53 946.88C1277.46 946.387 1278.52 946.02 1279.69 945.78C1280.48 945.62 1281.28 945.487 1282.11 945.38C1282.95 945.273 1283.74 945.187 1284.47 945.12C1285.22 945.053 1285.85 945 1286.37 944.96V944.36C1286.37 942.973 1286.14 942 1285.67 941.44C1285.22 940.88 1284.42 940.6 1283.27 940.6C1282.54 940.6 1281.92 940.7 1281.41 940.9C1280.92 941.1 1280.54 941.46 1280.29 941.98C1280.05 942.5 1279.94 943.24 1279.95 944.2H1274.07C1273.91 942.28 1274.21 940.7 1274.97 939.46C1275.73 938.207 1276.84 937.28 1278.31 936.68C1279.78 936.067 1281.5 935.76 1283.47 935.76C1284.62 935.76 1285.73 935.887 1286.81 936.14C1287.89 936.38 1288.86 936.8 1289.71 937.4C1290.56 937.987 1291.24 938.793 1291.73 939.82C1292.24 940.847 1292.49 942.147 1292.49 943.72V958H1286.33L1286.37 952.9C1286.13 954.367 1285.53 955.627 1284.57 956.68C1283.62 957.72 1282.15 958.24 1280.15 958.24ZM1282.21 954.12C1282.86 954.12 1283.48 954 1284.07 953.76C1284.67 953.507 1285.18 953.167 1285.59 952.74C1286 952.3 1286.26 951.813 1286.37 951.28V947.84C1285.84 947.92 1285.3 948.007 1284.75 948.1C1284.2 948.193 1283.72 948.293 1283.31 948.4C1281.98 948.693 1281.06 949.1 1280.57 949.62C1280.08 950.127 1279.83 950.793 1279.83 951.62C1279.83 952.14 1279.92 952.587 1280.09 952.96C1280.28 953.333 1280.55 953.62 1280.91 953.82C1281.27 954.02 1281.7 954.12 1282.21 954.12ZM1304.52 958.26C1302.82 958.26 1301.35 957.8 1300.12 956.88C1298.9 955.947 1297.96 954.633 1297.3 952.94C1296.66 951.247 1296.34 949.26 1296.34 946.98C1296.34 944.62 1296.7 942.607 1297.42 940.94C1298.14 939.26 1299.15 937.98 1300.44 937.1C1301.74 936.207 1303.23 935.76 1304.92 935.76C1306.02 935.76 1306.96 935.947 1307.74 936.32C1308.54 936.693 1309.19 937.193 1309.68 937.82C1310.18 938.447 1310.5 939.133 1310.66 939.88L1311.38 941.92L1310.4 943.34C1310.27 942.833 1310.04 942.4 1309.72 942.04C1309.42 941.667 1309.02 941.38 1308.52 941.18C1308.04 940.98 1307.47 940.88 1306.8 940.88C1305.46 940.88 1304.41 941.393 1303.66 942.42C1302.93 943.433 1302.56 944.993 1302.56 947.1C1302.56 949.113 1302.92 950.627 1303.62 951.64C1304.34 952.653 1305.38 953.16 1306.74 953.16C1307.4 953.16 1307.98 953.067 1308.5 952.88C1309.04 952.68 1309.47 952.44 1309.8 952.16C1310.14 951.867 1310.34 951.58 1310.4 951.3L1310.64 951.56L1310.4 952.88C1310.22 953.68 1309.96 954.413 1309.64 955.08C1309.32 955.733 1308.93 956.3 1308.46 956.78C1308 957.247 1307.44 957.613 1306.78 957.88C1306.14 958.133 1305.39 958.26 1304.52 958.26ZM1310.42 958L1310.4 926.88H1316.6V958H1310.42ZM1330.94 958.3C1328.82 958.3 1326.98 957.867 1325.42 957C1323.86 956.133 1322.65 954.86 1321.78 953.18C1320.93 951.487 1320.5 949.413 1320.5 946.96C1320.5 944.64 1320.95 942.64 1321.86 940.96C1322.77 939.28 1324.01 937.993 1325.6 937.1C1327.19 936.193 1328.99 935.74 1331.02 935.74C1333.21 935.74 1335.07 936.193 1336.62 937.1C1338.18 937.993 1339.37 939.28 1340.2 940.96C1341.04 942.64 1341.46 944.64 1341.46 946.96C1341.46 949.413 1341 951.487 1340.08 953.18C1339.16 954.86 1337.91 956.133 1336.32 957C1334.73 957.867 1332.94 958.3 1330.94 958.3ZM1331.02 953.16C1332.23 953.16 1333.25 952.713 1334.06 951.82C1334.87 950.913 1335.28 949.293 1335.28 946.96C1335.28 944.787 1334.85 943.233 1334 942.3C1333.16 941.353 1332.15 940.88 1330.96 940.88C1329.75 940.88 1328.73 941.353 1327.92 942.3C1327.11 943.233 1326.7 944.787 1326.7 946.96C1326.7 949.2 1327.13 950.793 1327.98 951.74C1328.83 952.687 1329.85 953.16 1331.02 953.16ZM1345.37 958V936.18H1350.93L1351.45 944.72L1351.09 943.42C1351.21 942.273 1351.43 941.233 1351.75 940.3C1352.07 939.353 1352.49 938.54 1352.99 937.86C1353.5 937.18 1354.11 936.653 1354.81 936.28C1355.53 935.907 1356.35 935.72 1357.27 935.72C1357.54 935.72 1357.81 935.733 1358.07 935.76C1358.35 935.787 1358.6 935.833 1358.81 935.9V942.36C1358.36 942.24 1357.92 942.16 1357.49 942.12C1357.08 942.067 1356.67 942.04 1356.25 942.04C1355.52 942.04 1354.85 942.107 1354.25 942.24C1353.67 942.373 1353.15 942.58 1352.71 942.86C1352.27 943.127 1351.91 943.473 1351.61 943.9V958H1345.37ZM1377.78 958.3C1375.66 958.3 1373.82 957.867 1372.26 957C1370.7 956.133 1369.48 954.86 1368.62 953.18C1367.76 951.487 1367.34 949.413 1367.34 946.96C1367.34 944.64 1367.79 942.64 1368.7 940.96C1369.6 939.28 1370.85 937.993 1372.44 937.1C1374.02 936.193 1375.83 935.74 1377.86 935.74C1380.04 935.74 1381.91 936.193 1383.46 937.1C1385.02 937.993 1386.21 939.28 1387.04 940.96C1387.88 942.64 1388.3 944.64 1388.3 946.96C1388.3 949.413 1387.84 951.487 1386.92 953.18C1386 954.86 1384.74 956.133 1383.16 957C1381.57 957.867 1379.78 958.3 1377.78 958.3ZM1377.86 953.16C1379.07 953.16 1380.08 952.713 1380.9 951.82C1381.71 950.913 1382.12 949.293 1382.12 946.96C1382.12 944.787 1381.69 943.233 1380.84 942.3C1380 941.353 1378.98 940.88 1377.8 940.88C1376.58 940.88 1375.57 941.353 1374.76 942.3C1373.94 943.233 1373.54 944.787 1373.54 946.96C1373.54 949.2 1373.96 950.793 1374.82 951.74C1375.67 952.687 1376.68 953.16 1377.86 953.16ZM1405.85 958.26C1404.05 958.26 1402.65 957.807 1401.65 956.9C1400.65 955.98 1400.14 954.56 1400.13 952.64L1400.07 942.88C1400.07 942.373 1400.21 941.96 1400.49 941.64C1400.78 941.32 1401.19 941.113 1401.71 941.02L1400.07 937.04V936.38L1401.21 929.92H1406.27V950.72C1406.27 951.653 1406.38 952.3 1406.61 952.66C1406.85 953.02 1407.3 953.2 1407.97 953.2C1408.63 953.2 1409.19 953.187 1409.63 953.16C1410.08 953.133 1410.51 953.087 1410.91 953.02V957.92C1410.43 958.093 1409.71 958.193 1408.75 958.22C1407.8 958.247 1406.83 958.26 1405.85 958.26ZM1397.75 941.02V936.18H1410.77V941.02H1397.75ZM1420.27 958.24C1419.03 958.24 1417.9 958.007 1416.89 957.54C1415.89 957.073 1415.09 956.387 1414.51 955.48C1413.92 954.573 1413.63 953.46 1413.63 952.14C1413.63 950.82 1413.89 949.733 1414.43 948.88C1414.97 948.027 1415.71 947.36 1416.65 946.88C1417.58 946.387 1418.63 946.02 1419.81 945.78C1420.59 945.62 1421.4 945.487 1422.23 945.38C1423.07 945.273 1423.85 945.187 1424.59 945.12C1425.33 945.053 1425.97 945 1426.49 944.96V944.36C1426.49 942.973 1426.25 942 1425.79 941.44C1425.33 940.88 1424.53 940.6 1423.39 940.6C1422.65 940.6 1422.03 940.7 1421.53 940.9C1421.03 941.1 1420.66 941.46 1420.41 941.98C1420.17 942.5 1420.05 943.24 1420.07 944.2H1414.19C1414.03 942.28 1414.33 940.7 1415.09 939.46C1415.85 938.207 1416.96 937.28 1418.43 936.68C1419.89 936.067 1421.61 935.76 1423.59 935.76C1424.73 935.76 1425.85 935.887 1426.93 936.14C1428.01 936.38 1428.97 936.8 1429.83 937.4C1430.68 937.987 1431.35 938.793 1431.85 939.82C1432.35 940.847 1432.61 942.147 1432.61 943.72V958H1426.45L1426.49 952.9C1426.25 954.367 1425.65 955.627 1424.69 956.68C1423.74 957.72 1422.27 958.24 1420.27 958.24ZM1422.33 954.12C1422.98 954.12 1423.6 954 1424.19 953.76C1424.79 953.507 1425.29 953.167 1425.71 952.74C1426.12 952.3 1426.38 951.813 1426.49 951.28V947.84C1425.95 947.92 1425.41 948.007 1424.87 948.1C1424.32 948.193 1423.84 948.293 1423.43 948.4C1422.09 948.693 1421.18 949.1 1420.69 949.62C1420.19 950.127 1419.95 950.793 1419.95 951.62C1419.95 952.14 1420.03 952.587 1420.21 952.96C1420.39 953.333 1420.67 953.62 1421.03 953.82C1421.39 954.02 1421.82 954.12 1422.33 954.12ZM1449.3 958.26C1448.22 958.26 1447.27 958.073 1446.46 957.7C1445.66 957.327 1445.01 956.827 1444.52 956.2C1444.03 955.573 1443.7 954.887 1443.54 954.14L1442.92 951.9L1443.8 950.78C1443.95 951.287 1444.17 951.727 1444.48 952.1C1444.8 952.46 1445.21 952.74 1445.7 952.94C1446.19 953.127 1446.77 953.22 1447.44 953.22C1448.76 953.22 1449.79 952.707 1450.52 951.68C1451.25 950.653 1451.62 949.08 1451.62 946.96C1451.62 944.933 1451.27 943.42 1450.56 942.42C1449.85 941.407 1448.83 940.9 1447.48 940.9C1446.83 940.9 1446.23 940.993 1445.7 941.18C1445.17 941.353 1444.73 941.573 1444.4 941.84C1444.08 942.107 1443.88 942.387 1443.8 942.68L1443.54 942.52L1443.82 941.18C1444.07 940.007 1444.45 939.02 1444.94 938.22C1445.45 937.407 1446.1 936.793 1446.9 936.38C1447.7 935.967 1448.65 935.76 1449.76 935.76C1451.45 935.76 1452.9 936.22 1454.1 937.14C1455.3 938.06 1456.22 939.36 1456.86 941.04C1457.51 942.707 1457.84 944.673 1457.84 946.94C1457.84 948.74 1457.63 950.34 1457.22 951.74C1456.81 953.14 1456.22 954.327 1455.46 955.3C1454.71 956.26 1453.81 956.993 1452.76 957.5C1451.72 958.007 1450.57 958.26 1449.3 958.26ZM1437.62 958V926.88H1443.82V937.68V951.72L1444.06 952.82L1443.6 954.26L1443.3 958H1437.62ZM1461.88 958V926.76H1468.12V958H1461.88ZM1482.48 958.3C1480.27 958.3 1478.38 957.86 1476.82 956.98C1475.26 956.1 1474.07 954.827 1473.24 953.16C1472.41 951.48 1472 949.453 1472 947.08C1472 944.627 1472.44 942.56 1473.32 940.88C1474.2 939.187 1475.44 937.907 1477.04 937.04C1478.64 936.173 1480.51 935.74 1482.66 935.74C1484.74 935.74 1486.49 936.133 1487.9 936.92C1489.33 937.707 1490.41 938.867 1491.14 940.4C1491.87 941.933 1492.24 943.82 1492.24 946.06C1492.24 946.34 1492.23 946.667 1492.2 947.04C1492.19 947.4 1492.17 947.813 1492.14 948.28H1478.1C1478.25 950.093 1478.69 951.42 1479.42 952.26C1480.15 953.087 1481.18 953.5 1482.5 953.5C1483.59 953.5 1484.42 953.26 1484.98 952.78C1485.55 952.3 1485.89 951.667 1486 950.88H1491.96C1491.84 952.387 1491.38 953.7 1490.58 954.82C1489.79 955.927 1488.71 956.787 1487.34 957.4C1485.97 958 1484.35 958.3 1482.48 958.3ZM1480.64 944.78H1486.26C1486.21 943.38 1485.87 942.333 1485.24 941.64C1484.63 940.947 1483.68 940.6 1482.4 940.6C1480.89 940.6 1479.79 941.14 1479.1 942.22C1478.41 943.287 1478.05 944.807 1478.04 946.78C1478.15 946.02 1478.41 945.5 1478.82 945.22C1479.23 944.927 1479.84 944.78 1480.64 944.78ZM1502.64 958.26C1500.84 958.26 1499.44 957.807 1498.44 956.9C1497.44 955.98 1496.94 954.56 1496.92 952.64L1496.86 942.88C1496.86 942.373 1497 941.96 1497.28 941.64C1497.58 941.32 1497.98 941.113 1498.5 941.02L1496.86 937.04V936.38L1498 929.92H1503.06V950.72C1503.06 951.653 1503.18 952.3 1503.4 952.66C1503.64 953.02 1504.1 953.2 1504.76 953.2C1505.43 953.2 1505.98 953.187 1506.42 953.16C1506.88 953.133 1507.3 953.087 1507.7 953.02V957.92C1507.22 958.093 1506.5 958.193 1505.54 958.22C1504.6 958.247 1503.63 958.26 1502.64 958.26ZM1494.54 941.02V936.18H1507.56V941.02H1494.54ZM1517.06 958.24C1515.82 958.24 1514.7 958.007 1513.68 957.54C1512.68 957.073 1511.89 956.387 1511.3 955.48C1510.72 954.573 1510.42 953.46 1510.42 952.14C1510.42 950.82 1510.69 949.733 1511.22 948.88C1511.77 948.027 1512.51 947.36 1513.44 946.88C1514.38 946.387 1515.43 946.02 1516.6 945.78C1517.39 945.62 1518.2 945.487 1519.02 945.38C1519.86 945.273 1520.65 945.187 1521.38 945.12C1522.13 945.053 1522.76 945 1523.28 944.96V944.36C1523.28 942.973 1523.05 942 1522.58 941.44C1522.13 940.88 1521.33 940.6 1520.18 940.6C1519.45 940.6 1518.83 940.7 1518.32 940.9C1517.83 941.1 1517.46 941.46 1517.2 941.98C1516.96 942.5 1516.85 943.24 1516.86 944.2H1510.98C1510.82 942.28 1511.12 940.7 1511.88 939.46C1512.64 938.207 1513.76 937.28 1515.22 936.68C1516.69 936.067 1518.41 935.76 1520.38 935.76C1521.53 935.76 1522.64 935.887 1523.72 936.14C1524.8 936.38 1525.77 936.8 1526.62 937.4C1527.48 937.987 1528.15 938.793 1528.64 939.82C1529.15 940.847 1529.4 942.147 1529.4 943.72V958H1523.24L1523.28 952.9C1523.04 954.367 1522.44 955.627 1521.48 956.68C1520.54 957.72 1519.06 958.24 1517.06 958.24ZM1519.12 954.12C1519.78 954.12 1520.4 954 1520.98 953.76C1521.58 953.507 1522.09 953.167 1522.5 952.74C1522.92 952.3 1523.18 951.813 1523.28 951.28V947.84C1522.75 947.92 1522.21 948.007 1521.66 948.1C1521.12 948.193 1520.64 948.293 1520.22 948.4C1518.89 948.693 1517.98 949.1 1517.48 949.62C1516.99 950.127 1516.74 950.793 1516.74 951.62C1516.74 952.14 1516.83 952.587 1517 952.96C1517.19 953.333 1517.46 953.62 1517.82 953.82C1518.18 954.02 1518.62 954.12 1519.12 954.12Z" fill="#FDFDFD"/>
<defs>
<linearGradient id="paint0_linear_78_19" x1="95.3191" y1="50.7383" x2="830.872" y2="1530.51" gradientUnits="userSpaceOnUse">
<stop stop-color="#8031EF"/>
<stop offset="1" stop-color="#5C1EDE"/>
</linearGradient>
<clipPath id="clip0_78_19">
<rect width="556.762" height="198.733" fill="white" transform="translate(679 441.121)"/>
</clipPath>
</defs>
</svg>
