<svg width="555" height="197" viewBox="0 0 555 197" fill="none" xmlns="http://www.w3.org/2000/svg">
<path fill-rule="evenodd" clip-rule="evenodd" d="M118.645 51.3557C118.645 51.3557 117.705 47.2884 117.705 38.2205V-1.92236H173.102V192.444H123.002L121.752 180.242C121.431 174.296 122.371 170.229 122.371 170.229H121.752C114.908 185.242 94.9822 196.81 73.1994 196.81C33.6808 196.81 0.685547 167.095 0.685547 114.232C0.685547 61.3684 33.6808 31.653 71.9612 31.653C93.4459 31.653 109.932 40.4097 118.026 51.3557H118.645ZM52.6548 114.232C52.6548 136.124 66.355 150.515 84.0908 150.515C100.588 150.515 115.527 137.691 115.527 114.232C115.527 90.7727 100.588 77.9487 84.0908 77.9487C66.3435 77.9487 52.6548 92.3397 52.6548 114.232ZM195.447 36.0314H251.154V192.42H195.447V36.0314ZM347.147 132.69V82.016H385.083V36.0314H264.269V82.016H292.747L292.369 137.38C292.369 143.325 292.988 148.948 293.619 153.96C298.904 185.242 322.876 196.81 349.016 196.81C368.62 196.81 383.559 193.365 390.724 189.932V144.892C384.499 147.703 375.476 151.148 365.823 151.148C356.17 151.148 347.147 146.77 347.147 132.69ZM501.736 114.543V36.0314H501.759H557.466V192.444H507.044L505.485 176.485C505.164 171.784 506.104 168.351 506.723 166.473H506.104C499.26 180.864 478.715 196.81 455.683 196.81C422.378 196.81 401.214 176.163 401.214 133.623V36.0314H456.921V125.178C456.921 137.691 461.587 146.758 473.728 146.758C490.845 146.758 501.736 133.312 501.736 114.543Z" fill="#FDFDFD"/>
</svg>
